name Walk10.mot
datacolumns 19
datarows 12
range 2.55000000 2.60500000
endheader

                time	   L_ground_force_vx	   L_ground_force_vy	   L_ground_force_vz	   L_ground_force_px	   L_ground_force_py	   L_ground_force_pz	   R_ground_force_vx	   R_ground_force_vy	   R_ground_force_vz	   R_ground_force_px	   R_ground_force_py	   R_ground_force_pz	   L_ground_torque_x	   L_ground_torque_y	   L_ground_torque_z	   R_ground_torque_x	   R_ground_torque_y	   R_ground_torque_z	
          2.55000000	         -0.00000000	         -0.00000000	          0.00000000	          0.00000000	          0.00000000	          0.00000000	         -0.05571459	         -0.46642116	         -0.03094916	         -0.00954998	          0.00000000	         -0.00173276	          0.00000000	         -0.00000000	          0.00000000	          0.00000000	         -0.00160511	          0.00000000	
          2.55500000	          0.00000000	         -0.00000000	          0.00000000	          0.00000000	          0.00000000	          0.00000000	         -0.00096650	         -0.01367684	         -0.00332386	         -0.00170213	          0.00000000	         -0.00028648	          0.00000000	         -0.00000000	          0.00000000	          0.00000000	         -0.00020369	          0.00000000	
          2.56000000	          0.00000000	          0.00000000	         -0.00000000	         -0.00000000	          0.00000000	         -0.00000000	          0.00577359	          0.04676138	          0.00242241	          0.00055699	          0.00000000	          0.00010736	          0.00000000	          0.00000000	          0.00000000	          0.00000000	          0.00011682	          0.00000000	
          2.56500000	          0.00000000	          0.00000000	         -0.00000000	         -0.00000000	          0.00000000	         -0.00000000	          0.00173066	          0.01465163	          0.00104281	          0.00034155	          0.00000000	          0.00006132	          0.00000000	          0.00000000	          0.00000000	          0.00000000	          0.00005500	          0.00000000	
          2.57000000	         -0.00000000	         -0.00000000	         -0.00000000	         -0.00000000	          0.00000000	         -0.00000000	         -0.00013917	         -0.00094846	          0.00003078	          0.00003573	          0.00000000	          0.00000562	          0.00000000	         -0.00000000	          0.00000000	          0.00000000	          0.00000281	          0.00000000	
          2.57500000	         -0.00000000	         -0.00000000	          0.00000000	          0.00000000	          0.00000000	          0.00000000	         -0.00022699	         -0.00185696	         -0.00010449	         -0.00002700	          0.00000000	         -0.00000507	          0.00000000	         -0.00000000	          0.00000000	          0.00000000	         -0.00000518	          0.00000000	
          2.58000000	         -0.00000000	         -0.00000000	          0.00000000	          0.00000000	          0.00000000	          0.00000000	         -0.00004882	         -0.00041998	         -0.00003276	         -0.00001148	          0.00000000	         -0.00000204	          0.00000000	         -0.00000000	          0.00000000	          0.00000000	         -0.00000176	          0.00000000	
          2.58500000	          0.00000000	          0.00000000	         -0.00000000	         -0.00000000	          0.00000000	         -0.00000000	          0.00001089	          0.00008324	          0.00000211	         -0.00000030	          0.00000000	         -0.00000002	          0.00000000	          0.00000000	          0.00000000	          0.00000000	          0.00000007	          0.00000000	
          2.59000000	          0.00000000	          0.00000000	         -0.00000000	         -0.00000000	          0.00000000	         -0.00000000	          0.00000836	          0.00006901	          0.00000415	          0.00000116	          0.00000000	          0.00000021	          0.00000000	          0.00000000	          0.00000000	          0.00000000	          0.00000021	          0.00000000	
          2.59500000	          0.00000000	          0.00000000	         -0.00000000	         -0.00000000	          0.00000000	         -0.00000000	          0.00000117	          0.00001040	          0.00000094	          0.00000036	          0.00000000	          0.00000006	          0.00000000	          0.00000000	          0.00000000	          0.00000000	          0.00000005	          0.00000000	
          2.60000000	         -0.00000000	         -0.00000000	          0.00000000	          0.00000000	          0.00000000	          0.00000000	         -0.00000058	         -0.00000456	         -0.00000019	         -0.00000002	          0.00000000	         -0.00000001	          0.00000000	         -0.00000000	          0.00000000	          0.00000000	         -0.00000001	          0.00000000	
          2.60500000	         -0.00000000	         -0.00000000	          0.00000000	          0.00000000	          0.00000000	          0.00000000	         -0.00000029	         -0.00000241	         -0.00000015	         -0.00000005	          0.00000000	         -0.00000001	          0.00000000	         -0.00000000	          0.00000000	          0.00000000	         -0.00000001	          0.00000000	
